<svg width="35" height="35" viewBox="0 0 35 35" fill="none" xmlns="http://www.w3.org/2000/svg">
<g clip-path="url(#clip0_1740_7817)">
<g clip-path="url(#clip1_1740_7817)">
<g clip-path="url(#clip2_1740_7817)">
<g filter="url(#filter0_d_1740_7817)">
<path d="M3.97266 17.1431C3.97266 9.41108 10.2407 3.14307 17.9727 3.14307C25.7046 3.14307 31.9727 9.41108 31.9727 17.1431C31.9727 24.8751 25.7046 31.1431 17.9727 31.1431C10.2407 31.1431 3.97266 24.8751 3.97266 17.1431Z" fill="white"/>
<path d="M15.0029 17.5677C15.0029 17.7092 15.0622 17.8448 15.1673 17.9438L20.0111 22.5081C20.2272 22.7117 20.574 22.7083 20.7857 22.5006C20.9975 22.2929 20.994 21.9594 20.7779 21.7559L16.3333 17.5677L20.7779 13.3796C20.994 13.176 20.9975 12.8426 20.7857 12.6348C20.574 12.4271 20.2272 12.4237 20.0111 12.6273L15.1673 17.1916C15.0622 17.2906 15.0029 17.4262 15.0029 17.5677Z" fill="#171717"/>
</g>
</g>
</g>
</g>
<defs>
<filter id="filter0_d_1740_7817" x="-4.02734" y="-4.85693" width="44" height="44" filterUnits="userSpaceOnUse" color-interpolation-filters="sRGB">
<feFlood flood-opacity="0" result="BackgroundImageFix"/>
<feColorMatrix in="SourceAlpha" type="matrix" values="0 0 0 0 0 0 0 0 0 0 0 0 0 0 0 0 0 0 127 0" result="hardAlpha"/>
<feOffset/>
<feGaussianBlur stdDeviation="4"/>
<feComposite in2="hardAlpha" operator="out"/>
<feColorMatrix type="matrix" values="0 0 0 0 0 0 0 0 0 0 0 0 0 0 0 0 0 0 0.08 0"/>
<feBlend mode="normal" in2="BackgroundImageFix" result="effect1_dropShadow_1740_7817"/>
<feBlend mode="normal" in="SourceGraphic" in2="effect1_dropShadow_1740_7817" result="shape"/>
</filter>
<clipPath id="clip0_1740_7817">
<rect width="34" height="34" fill="white" transform="matrix(-1 0 0 1 34.9727 0.143066)"/>
</clipPath>
<clipPath id="clip1_1740_7817">
<rect width="34" height="34" fill="white" transform="matrix(-1 0 0 1 34.9727 0.143066)"/>
</clipPath>
<clipPath id="clip2_1740_7817">
<rect width="34" height="34" fill="white" transform="matrix(-1 0 0 1 34.9727 0.143066)"/>
</clipPath>
</defs>
</svg>
